<svg xmlns="http://www.w3.org/2000/svg" xmlns:xlink="http://www.w3.org/1999/xlink" xmlns:lucid="lucid" width="540.63" height="264.51"><g transform="translate(-219.37007874015745 -74.48818897637794)" lucid:page-tab-id="0_0"><path d="M0 0h1870.4v1323.2H0z" fill="#fff"/><path d="M239.37 160h100v80h-100z" stroke="#7ab648" fill="#c7e8ac"/><use xlink:href="#a" transform="matrix(1,0,0,1,244.37007874015745,165) translate(13.586444444444439 39.587833333333336)"/><path d="M400 160h100v80H400z" stroke="#0c7cba" fill="#b2d6ef"/><use xlink:href="#b" transform="matrix(1,0,0,1,405,165) translate(12.466222222222221 39.587833333333336)"/><use xlink:href="#c" transform="matrix(1,0,0,1,405,165) translate(53.062444444444445 39.587833333333336)"/><path d="M600 94.5h140v40H600z" stroke="#fcc438" fill="#ffeca9"/><use xlink:href="#d" transform="matrix(1,0,0,1,605,99.48818897637794) translate(23.21688888888889 21.462)"/><use xlink:href="#e" transform="matrix(1,0,0,1,605,99.48818897637794) translate(97.83711111111111 21.462)"/><path d="M600 160h140v40H600z" stroke="#fcc438" fill="#ffeca9"/><use xlink:href="#f" transform="matrix(1,0,0,1,605,165) translate(23.993555555555552 21.150333333333336)"/><use xlink:href="#g" transform="matrix(1,0,0,1,605,165) translate(98.1648888888889 21.150333333333336)"/><path d="M600 280h140v39H600z" stroke="#fcc438" fill="#ffeca9"/><use xlink:href="#f" transform="matrix(1,0,0,1,605,285) translate(23.599111111111107 20.962833333333336)"/><use xlink:href="#h" transform="matrix(1,0,0,1,605,285) translate(97.77044444444445 20.962833333333336)"/><path d="M501 200h49v-84.52h33.12" stroke="#666" fill="none"/><path d="M501 200.5h-.5v-1h.5z" fill="#666"/><path d="M597.88 115.48l-14.26 4.63v-9.26z" stroke="#666" fill="#666"/><path d="M501 200h49v-20h33.12" stroke="#666" fill="none"/><path d="M501 200.5h-.5v-1h.5z" fill="#666"/><path d="M597.88 180l-14.26 4.64v-9.28z" stroke="#666" fill="#666"/><path d="M501 200h49v98.54h33.12" stroke="#666" fill="none"/><path d="M501 200.5h-.5v-1h.5z" fill="#666"/><path d="M597.88 298.54l-14.26 4.63v-9.27z" stroke="#666" fill="#666"/><path d="M340.37 200h42.75" stroke="#666" fill="none"/><path d="M340.38 200.5h-.5v-1h.5z" fill="#666"/><path d="M397.88 200l-14.26 4.64v-9.28z" stroke="#666" fill="#666"/><path d="M643 240c0 .83-.67 1.5-1.5 1.5s-1.5-.67-1.5-1.5.67-1.5 1.5-1.5 1.5.67 1.5 1.5zm11.4 0c0 .83-.67 1.5-1.5 1.5s-1.5-.67-1.5-1.5.67-1.5 1.5-1.5 1.5.67 1.5 1.5zm11.4 0c0 .83-.67 1.5-1.5 1.5s-1.5-.67-1.5-1.5.67-1.5 1.5-1.5 1.5.67 1.5 1.5zm11.4 0c0 .83-.67 1.5-1.5 1.5s-1.5-.67-1.5-1.5.67-1.5 1.5-1.5 1.5.67 1.5 1.5zm11.4 0c0 .83-.67 1.5-1.5 1.5s-1.5-.67-1.5-1.5.67-1.5 1.5-1.5 1.5.67 1.5 1.5zm11.4 0c0 .83-.67 1.5-1.5 1.5s-1.5-.67-1.5-1.5.67-1.5 1.5-1.5 1.5.67 1.5 1.5z"/><path d="M641.54 240H640M698.46 240H700" stroke="#000" stroke-width="3" fill="none"/><defs><path d="M533-463c0 144-98 200-242 203H173V0H90v-656h201c145 0 242 48 242 193zm-83 0c5-141-139-126-277-126v261h108c107-1 165-34 169-135" id="i"/><path d="M224 12C112 12 76-61 75-178v-308h83v297c1 82 17 130 91 130 69 0 90-36 131-82v-345h82V0h-68l-7-76h-3c-42 46-81 88-160 88" id="j"/><path d="M297 12c-57 0-104-28-139-60h-3l-7 48H82v-712h82c0 94 1 190-2 282 38-32 88-68 152-68 139 0 193 105 193 247 0 150-68 263-210 263zm125-262c0-101-29-177-128-179-39 0-83 22-130 66v255c33 29 70 51 119 51 100 0 139-86 139-193" id="k"/><path d="M169 12c-67 0-86-42-87-110v-614h82v620c-2 29 15 42 41 34l11 62c-13 6-27 8-47 8" id="l"/><path d="M181-639c0 30-26 53-57 53s-57-23-57-53c0-31 26-53 57-53s57 22 57 53zM82-486h82V0H82v-486" id="m"/><path d="M374-191C441-40 261 57 110-7 79-20 51-36 28-55l41-55c40 31 77 52 143 58 87 8 128-92 60-134-81-50-214-50-220-174-7-157 230-170 318-83l-39 52c-30-22-63-38-111-43-80-8-120 85-56 122 69 40 177 47 210 121" id="n"/><path d="M297-427c-68 0-89 36-133 75V0H82v-712h82c0 99 1 199-3 294 44-38 85-80 162-80 111 0 147 74 148 190V0h-82v-297c-1-82-18-130-92-130" id="o"/><path d="M279 12C129 6 46-87 46-242c0-148 77-256 218-256 148 0 205 117 191 273H127c4 97 64 171 162 171 51 0 87-18 121-38l29 54c-42 25-92 53-160 50zm107-291c7-109-70-183-170-143-53 21-83 73-90 143h260" id="p"/><path d="M334-416c-89-26-142 29-170 104V0H82v-486h68l7 88h3c31-63 101-124 190-90" id="q"/><g id="a"><use transform="matrix(0.01577777777777778,0,0,0.01577777777777778,0,0)" xlink:href="#i"/><use transform="matrix(0.01577777777777778,0,0,0.01577777777777778,9.088000000000001,0)" xlink:href="#j"/><use transform="matrix(0.01577777777777778,0,0,0.01577777777777778,17.671111111111113,0)" xlink:href="#k"/><use transform="matrix(0.01577777777777778,0,0,0.01577777777777778,26.42777777777778,0)" xlink:href="#l"/><use transform="matrix(0.01577777777777778,0,0,0.01577777777777778,30.451111111111114,0)" xlink:href="#m"/><use transform="matrix(0.01577777777777778,0,0,0.01577777777777778,34.33244444444445,0)" xlink:href="#n"/><use transform="matrix(0.01577777777777778,0,0,0.01577777777777778,40.943333333333335,0)" xlink:href="#o"/><use transform="matrix(0.01577777777777778,0,0,0.01577777777777778,49.52644444444445,0)" xlink:href="#p"/><use transform="matrix(0.01577777777777778,0,0,0.01577777777777778,57.35222222222223,0)" xlink:href="#q"/></g><path d="M90-656h378v70H173v206h249v71H173v238h305V0H90v-656" id="r"/><path d="M12-486h85c46 139 93 277 137 419h4c42-142 90-280 136-419h81L283 0h-96" id="s"/><path d="M297-427c-68 0-89 36-133 75V0H82v-486h68l7 70h3c43-40 85-82 163-82 111 0 147 74 148 190V0h-82v-297c-1-82-18-130-92-130" id="t"/><path d="M235 12C135 12 96-49 96-150v-269H24v-62l76-5 10-136h69v136h131v67H179v270c1 58 17 94 75 94 19 0 41-7 55-13l16 62c-25 8-58 18-90 18" id="u"/><g id="b"><use transform="matrix(0.01577777777777778,0,0,0.01577777777777778,0,0)" xlink:href="#r"/><use transform="matrix(0.01577777777777778,0,0,0.01577777777777778,8.31488888888889,0)" xlink:href="#s"/><use transform="matrix(0.01577777777777778,0,0,0.01577777777777778,15.620000000000001,0)" xlink:href="#p"/><use transform="matrix(0.01577777777777778,0,0,0.01577777777777778,23.445777777777778,0)" xlink:href="#t"/><use transform="matrix(0.01577777777777778,0,0,0.01577777777777778,32.07622222222222,0)" xlink:href="#u"/></g><path d="M548-192C547 22 309 4 90 0v-656c190 2 420-31 420 160 0 75-46 128-114 143v4c89 14 152 59 152 157zM428-489c4-116-137-100-255-101v214h97c99 0 155-27 158-113zm38 293c0-131-156-119-293-118v248c143 4 293 8 293-130" id="v"/><g id="c"><use transform="matrix(0.01577777777777778,0,0,0.01577777777777778,0,0)" xlink:href="#v"/><use transform="matrix(0.01577777777777778,0,0,0.01577777777777778,9.277333333333335,0)" xlink:href="#j"/><use transform="matrix(0.01577777777777778,0,0,0.01577777777777778,17.860444444444447,0)" xlink:href="#n"/></g><path d="M484-238C550-39 325 64 144-14 105-31 71-55 42-85l50-58c40 43 104 74 181 82 133 14 185-145 71-202-108-54-270-71-270-231 0-151 176-210 315-152 34 14 62 35 85 59l-45 54c-37-35-82-56-149-62-101-9-166 104-87 165 91 70 252 74 291 192" id="w"/><path d="M274 12C124 12 46-89 46-242c0-154 84-249 234-256 64-3 108 29 142 58l-41 53c-27-22-53-43-98-43-104 0-152 81-152 188S178-60 281-56c50 2 87-25 114-49l37 54c-39 34-91 63-158 63" id="x"/><g id="d"><use transform="matrix(0.01577777777777778,0,0,0.01577777777777778,0,0)" xlink:href="#w"/><use transform="matrix(0.01577777777777778,0,0,0.01577777777777778,8.425333333333334,0)" xlink:href="#j"/><use transform="matrix(0.01577777777777778,0,0,0.01577777777777778,17.008444444444446,0)" xlink:href="#k"/><use transform="matrix(0.01577777777777778,0,0,0.01577777777777778,25.765111111111114,0)" xlink:href="#n"/><use transform="matrix(0.01577777777777778,0,0,0.01577777777777778,32.376000000000005,0)" xlink:href="#x"/><use transform="matrix(0.01577777777777778,0,0,0.01577777777777778,39.570666666666675,0)" xlink:href="#q"/><use transform="matrix(0.01577777777777778,0,0,0.01577777777777778,45.045555555555566,0)" xlink:href="#m"/><use transform="matrix(0.01577777777777778,0,0,0.01577777777777778,48.9268888888889,0)" xlink:href="#k"/><use transform="matrix(0.01577777777777778,0,0,0.01577777777777778,57.683555555555564,0)" xlink:href="#p"/><use transform="matrix(0.01577777777777778,0,0,0.01577777777777778,65.50933333333334,0)" xlink:href="#q"/></g><path d="M109-591c55-10 96-24 135-47h63v570h132V0H79v-68h146v-470H109v-53" id="y"/><use transform="matrix(0.018,0,0,0.018,0,0)" xlink:href="#y" id="e"/><g id="f"><use transform="matrix(0.01577777777777778,0,0,0.01577777777777778,0,0)" xlink:href="#w"/><use transform="matrix(0.01577777777777778,0,0,0.01577777777777778,8.425333333333334,0)" xlink:href="#j"/><use transform="matrix(0.01577777777777778,0,0,0.01577777777777778,17.008444444444446,0)" xlink:href="#k"/><use transform="matrix(0.01577777777777778,0,0,0.01577777777777778,25.765111111111114,0)" xlink:href="#n"/><use transform="matrix(0.01577777777777778,0,0,0.01577777777777778,32.376000000000005,0)" xlink:href="#x"/><use transform="matrix(0.01577777777777778,0,0,0.01577777777777778,39.570666666666675,0)" xlink:href="#q"/><use transform="matrix(0.01577777777777778,0,0,0.01577777777777778,45.045555555555566,0)" xlink:href="#m"/><use transform="matrix(0.01577777777777778,0,0,0.01577777777777778,48.9268888888889,0)" xlink:href="#k"/><use transform="matrix(0.01577777777777778,0,0,0.01577777777777778,57.683555555555564,0)" xlink:href="#p"/><use transform="matrix(0.01577777777777778,0,0,0.01577777777777778,65.50933333333334,0)" xlink:href="#q"/></g><path d="M160-65c91-9 193-5 292-6V0H40v-49c105-109 211-198 280-329 48-90 10-210-101-205-62 3-103 42-136 77l-47-47c50-52 98-93 193-97 149-6 232 140 171 278-54 122-150 211-240 307" id="z"/><use transform="matrix(0.01577777777777778,0,0,0.01577777777777778,0,0)" xlink:href="#z" id="g"/><use transform="matrix(0.01577777777777778,0,0,0.01577777777777778,0,0)" xlink:href="#t" id="h"/></defs></g></svg>