<svg xmlns="http://www.w3.org/2000/svg" xmlns:xlink="http://www.w3.org/1999/xlink" xmlns:lucid="lucid" width="660" height="303.59"><g transform="translate(-600 -300)" lucid:page-tab-id="0_0"><path d="M0 0h1870.4v1323.2H0z" fill="#fff"/><path d="M620 416.4h100v80H620z" stroke="#7ab648" fill="#c7e8ac"/><use xlink:href="#a" transform="matrix(1,0,0,1,625,421.4107611548556) translate(13.586444444444439 39.587833333333336)"/><path d="M920 340h80v63.6h-80z" stroke="#de5f85" fill="#f9d2de"/><use xlink:href="#b" transform="matrix(1,0,0,1,925,345) translate(2.466222222222221 22.275333333333336)"/><use xlink:href="#c" transform="matrix(1,0,0,1,925,345) translate(43.062444444444445 22.275333333333336)"/><use xlink:href="#d" transform="matrix(1,0,0,1,925,345) translate(6.426444444444435 42.108000000000004)"/><use xlink:href="#e" transform="matrix(1,0,0,1,925,345) translate(55.732000000000006 42.108000000000004)"/><path d="M1100 320h140v40h-140z" stroke="#fcc438" fill="#ffeca9"/><use xlink:href="#f" transform="matrix(1,0,0,1,1105,325) translate(23.21688888888889 21.462)"/><use xlink:href="#g" transform="matrix(1,0,0,1,1105,325) translate(97.83711111111111 21.462)"/><path d="M1100 388.2h140v40h-140z" stroke="#fcc438" fill="#ffeca9"/><use xlink:href="#h" transform="matrix(1,0,0,1,1105,393.20538057742783) translate(23.993555555555552 21.150333333333336)"/><use xlink:href="#i" transform="matrix(1,0,0,1,1105,393.20538057742783) translate(98.1648888888889 21.150333333333336)"/><path d="M1100 544.6h140v39h-140z" fill="#ffeca9"/><path d="M1105.83 544.6h3.9m3.88 0h3.9m3.9 0h3.88m3.9 0h3.88m3.88 0h3.9m3.88 0h3.9m3.88 0h3.9m3.88 0h3.9m3.88 0h3.88m3.9 0h3.88m3.9 0h3.88m3.9 0h3.88m3.9 0h3.88m3.88 0h3.9m3.88 0h3.9m3.88 0h3.9m3.88 0h3.9m3.88 0h1.94v1.94m0 3.9v3.9m0 3.9v3.9m0 3.9v3.9m0 3.9v3.9m0 3.9v1.95h-1.94m-3.9 0h-3.88m-3.9 0h-3.88m-3.9 0h-3.88m-3.9 0h-3.88m-3.88 0h-3.9m-3.88 0h-3.9m-3.88 0h-3.9m-3.88 0h-3.9m-3.88 0h-3.88m-3.9 0h-3.88m-3.9 0h-3.88m-3.9 0h-3.88m-3.9 0h-3.88m-3.88 0h-3.9m-3.88 0h-3.9m-3.88 0h-3.9m-3.88 0h-3.9m-3.88 0H1100v-1.96m0-3.9v-3.9m0-3.9v-3.9m0-3.9v-3.9m0-3.9v-3.9m0-3.9v-1.95h1.94" stroke="#fcc438" fill="none"/><use xlink:href="#h" transform="matrix(1,0,0,1,1105,549.5892388451443) translate(23.599111111111107 20.962833333333336)"/><use xlink:href="#j" transform="matrix(1,0,0,1,1105,549.5892388451443) translate(97.77044444444445 20.962833333333336)"/><path d="M1001 371.8h49V341h33.12" stroke="#666" fill="none"/><path d="M1001 372.3h-.5v-1h.5z" fill="#666"/><path d="M1097.88 341l-14.26 4.62v-9.27z" stroke="#666" fill="#666"/><path d="M1001 371.8h49v36.4h33.12" stroke="#666" fill="none"/><path d="M1001 372.3h-.5v-1h.5z" fill="#666"/><path d="M1097.88 408.2l-14.26 4.64v-9.27z" stroke="#666" fill="#666"/><path d="M1143 520c0 .83-.67 1.5-1.5 1.5s-1.5-.67-1.5-1.5.67-1.5 1.5-1.5 1.5.67 1.5 1.5zm11.4 0c0 .83-.67 1.5-1.5 1.5s-1.5-.67-1.5-1.5.67-1.5 1.5-1.5 1.5.67 1.5 1.5zm11.4 0c0 .83-.67 1.5-1.5 1.5s-1.5-.67-1.5-1.5.67-1.5 1.5-1.5 1.5.67 1.5 1.5zm11.4 0c0 .83-.67 1.5-1.5 1.5s-1.5-.67-1.5-1.5.67-1.5 1.5-1.5 1.5.67 1.5 1.5zm11.4 0c0 .83-.67 1.5-1.5 1.5s-1.5-.67-1.5-1.5.67-1.5 1.5-1.5 1.5.67 1.5 1.5zm11.4 0c0 .83-.67 1.5-1.5 1.5s-1.5-.67-1.5-1.5.67-1.5 1.5-1.5 1.5.67 1.5 1.5z"/><path d="M1141.54 520H1140M1198.46 520h1.54" stroke="#000" stroke-width="3" fill="none"/><path d="M770 416.4h100v80H770z" stroke="#0c7cba" fill="#b2d6ef"/><use xlink:href="#b" transform="matrix(1,0,0,1,775,421.4107611548556) translate(12.466222222222221 39.587833333333336)"/><use xlink:href="#c" transform="matrix(1,0,0,1,775,421.4107611548556) translate(53.062444444444445 39.587833333333336)"/><path d="M920 520h80v63.6h-80z" fill="#f9d2de"/><path d="M926 520h4m4 0h4m4 0h4m4 0h4m4 0h4m4 0h4m4 0h4m4 0h4m4 0h4m4 0h2v2m0 3.96v3.98m0 3.97v3.98m0 3.98v3.97m0 3.98v3.98m0 3.98v3.97m0 3.97v3.98m0 3.97v3.98m0 3.97v2h-2m-4 0h-4m-4 0h-4m-4 0h-4m-4 0h-4m-4 0h-4m-4 0h-4m-4 0h-4m-4 0h-4m-4 0h-4m-4 0h-2v-2m0-3.97v-3.98m0-3.97v-3.98m0-3.97v-3.97m0-3.98v-3.97m0-3.97v-3.97m0-3.98v-3.97m0-3.96v-3.98m0-3.97v-2h2" stroke="#de5f85" fill="none"/><use xlink:href="#b" transform="matrix(1,0,0,1,925,525) translate(2.466222222222221 22.275333333333336)"/><use xlink:href="#c" transform="matrix(1,0,0,1,925,525) translate(43.062444444444445 22.275333333333336)"/><use xlink:href="#d" transform="matrix(1,0,0,1,925,525) translate(6.426444444444435 42.108000000000004)"/><use xlink:href="#k" transform="matrix(1,0,0,1,925,525) translate(55.732000000000006 42.108000000000004)"/><path d="M960 431.4l40 25-40 25-40-25z" stroke="#c92d39" fill="#ffbbb1"/><use xlink:href="#l" transform="matrix(1,0,0,1,925,436.41076115485566) translate(11.443 23.652)"/><use xlink:href="#m" transform="matrix(1,0,0,1,925,436.41076115485566) translate(53.75033333333333 23.652)"/><path d="M960 404.6v2.45m0 4.93v2.46" stroke="#666" fill="none"/><path d="M960.5 404.6h-1v-.5h1z" fill="#666"/><path d="M960 429.2l-4.64-14.26h9.28z" stroke="#666" fill="#666"/><path d="M960 482.5v1.72m0 3.43v3.44m0 3.43v3.43m0 3.44v1.72" stroke="#666" fill="none"/><path d="M960.5 482.5h-1v-.8l.5.3.5-.3z" fill="#666"/><path d="M960 517.88l-4.64-14.26h9.28z" stroke="#666" fill="#666"/><use xlink:href="#n" transform="matrix(1,0,0,1,968.0000000000001,483.2700855411323) translate(0 11.152000000000001)"/><path d="M1100 459.88h140v40h-140z" fill="#ffeca9"/><path d="M1105.83 459.88h3.9m3.88 0h3.9m3.9 0h3.88m3.9 0h3.88m3.88 0h3.9m3.88 0h3.9m3.88 0h3.9m3.88 0h3.9m3.88 0h3.88m3.9 0h3.88m3.9 0h3.88m3.9 0h3.88m3.9 0h3.88m3.88 0h3.9m3.88 0h3.9m3.88 0h3.9m3.88 0h3.9m3.88 0h1.94v2m0 4v4m0 4v4m0 4v4m0 4v4m0 4v2h-1.94m-3.9 0h-3.88m-3.9 0h-3.88m-3.9 0h-3.88m-3.9 0h-3.88m-3.88 0h-3.9m-3.88 0h-3.9m-3.88 0h-3.9m-3.88 0h-3.9m-3.88 0h-3.88m-3.9 0h-3.88m-3.9 0h-3.88m-3.9 0h-3.88m-3.9 0h-3.88m-3.88 0h-3.9m-3.88 0h-3.9m-3.88 0h-3.9m-3.88 0h-3.9m-3.88 0H1100v-2m0-4v-4m0-4v-4m0-4v-4m0-4v-4m0-4v-2h1.94" stroke="#fcc438" fill="none"/><use xlink:href="#o" transform="matrix(1,0,0,1,1105,464.8776902887139) translate(23.993555555555552 21.150333333333336)"/><use xlink:href="#p" transform="matrix(1,0,0,1,1105,464.8776902887139) translate(98.1648888888889 21.150333333333336)"/><path d="M1001 551.8h2.03m4.05 0h4.05m4.06 0h4.04m4.05 0h4.05m4.05 0h4.05m4.06 0h4.06m4.06 0h2.38v-1.67m0-4.06v-4.05m0-4.05v-4.06m0-4.04v-4.06m0-4.05v-4.05m0-4.06v-4.05m0-4.06v-4.06m0-4.05v-4.05m0-4.06v-4.05m0-4.05v-1.34h2.7m4.07 0h4.05m4.06 0h4.05m4.05 0h4.06m4.05 0h2.02" stroke="#666" fill="none"/><path d="M1001 552.3h-.5v-1h.5z" fill="#666"/><path d="M1097.88 479.88l-14.26 4.63v-9.26z" stroke="#666" fill="#666"/><path d="M1001 551.8h1.97m3.93 0h3.93m3.94 0h3.93m3.94 0h3.93m3.93 0h3.94m3.93 0h3.93m3.94 0h3.76v.17m0 3.93v3.93m0 3.94v.32h3.6m3.95 0h3.93m3.93 0h3.95m3.93 0h3.94m3.93 0h1.97" stroke="#666" fill="none"/><path d="M1001 552.3h-.5v-1h.5z" fill="#666"/><path d="M1097.88 564.1l-14.26 4.62v-9.27z" stroke="#666" fill="#666"/><path d="M871 456.4h24v-84.6h8.12" stroke="#666" fill="none"/><path d="M871 456.9h-.5v-1h.5z" fill="#666"/><path d="M917.88 371.8l-14.26 4.63v-9.27z" stroke="#666" fill="#666"/><path d="M721 456.4h32.12" stroke="#666" fill="none"/><path d="M721 456.9h-.5v-1h.5z" fill="#666"/><path d="M767.88 456.4l-14.26 4.65v-9.27z" stroke="#666" fill="#666"/><defs><path d="M533-463c0 144-98 200-242 203H173V0H90v-656h201c145 0 242 48 242 193zm-83 0c5-141-139-126-277-126v261h108c107-1 165-34 169-135" id="q"/><path d="M224 12C112 12 76-61 75-178v-308h83v297c1 82 17 130 91 130 69 0 90-36 131-82v-345h82V0h-68l-7-76h-3c-42 46-81 88-160 88" id="r"/><path d="M297 12c-57 0-104-28-139-60h-3l-7 48H82v-712h82c0 94 1 190-2 282 38-32 88-68 152-68 139 0 193 105 193 247 0 150-68 263-210 263zm125-262c0-101-29-177-128-179-39 0-83 22-130 66v255c33 29 70 51 119 51 100 0 139-86 139-193" id="s"/><path d="M169 12c-67 0-86-42-87-110v-614h82v620c-2 29 15 42 41 34l11 62c-13 6-27 8-47 8" id="t"/><path d="M181-639c0 30-26 53-57 53s-57-23-57-53c0-31 26-53 57-53s57 22 57 53zM82-486h82V0H82v-486" id="u"/><path d="M374-191C441-40 261 57 110-7 79-20 51-36 28-55l41-55c40 31 77 52 143 58 87 8 128-92 60-134-81-50-214-50-220-174-7-157 230-170 318-83l-39 52c-30-22-63-38-111-43-80-8-120 85-56 122 69 40 177 47 210 121" id="v"/><path d="M297-427c-68 0-89 36-133 75V0H82v-712h82c0 99 1 199-3 294 44-38 85-80 162-80 111 0 147 74 148 190V0h-82v-297c-1-82-18-130-92-130" id="w"/><path d="M279 12C129 6 46-87 46-242c0-148 77-256 218-256 148 0 205 117 191 273H127c4 97 64 171 162 171 51 0 87-18 121-38l29 54c-42 25-92 53-160 50zm107-291c7-109-70-183-170-143-53 21-83 73-90 143h260" id="x"/><path d="M334-416c-89-26-142 29-170 104V0H82v-486h68l7 88h3c31-63 101-124 190-90" id="y"/><g id="a"><use transform="matrix(0.01577777777777778,0,0,0.01577777777777778,0,0)" xlink:href="#q"/><use transform="matrix(0.01577777777777778,0,0,0.01577777777777778,9.088000000000001,0)" xlink:href="#r"/><use transform="matrix(0.01577777777777778,0,0,0.01577777777777778,17.671111111111113,0)" xlink:href="#s"/><use transform="matrix(0.01577777777777778,0,0,0.01577777777777778,26.42777777777778,0)" xlink:href="#t"/><use transform="matrix(0.01577777777777778,0,0,0.01577777777777778,30.451111111111114,0)" xlink:href="#u"/><use transform="matrix(0.01577777777777778,0,0,0.01577777777777778,34.33244444444445,0)" xlink:href="#v"/><use transform="matrix(0.01577777777777778,0,0,0.01577777777777778,40.943333333333335,0)" xlink:href="#w"/><use transform="matrix(0.01577777777777778,0,0,0.01577777777777778,49.52644444444445,0)" xlink:href="#x"/><use transform="matrix(0.01577777777777778,0,0,0.01577777777777778,57.35222222222223,0)" xlink:href="#y"/></g><path d="M90-656h378v70H173v206h249v71H173v238h305V0H90v-656" id="z"/><path d="M12-486h85c46 139 93 277 137 419h4c42-142 90-280 136-419h81L283 0h-96" id="A"/><path d="M297-427c-68 0-89 36-133 75V0H82v-486h68l7 70h3c43-40 85-82 163-82 111 0 147 74 148 190V0h-82v-297c-1-82-18-130-92-130" id="B"/><path d="M235 12C135 12 96-49 96-150v-269H24v-62l76-5 10-136h69v136h131v67H179v270c1 58 17 94 75 94 19 0 41-7 55-13l16 62c-25 8-58 18-90 18" id="C"/><g id="b"><use transform="matrix(0.01577777777777778,0,0,0.01577777777777778,0,0)" xlink:href="#z"/><use transform="matrix(0.01577777777777778,0,0,0.01577777777777778,8.31488888888889,0)" xlink:href="#A"/><use transform="matrix(0.01577777777777778,0,0,0.01577777777777778,15.620000000000001,0)" xlink:href="#x"/><use transform="matrix(0.01577777777777778,0,0,0.01577777777777778,23.445777777777778,0)" xlink:href="#B"/><use transform="matrix(0.01577777777777778,0,0,0.01577777777777778,32.07622222222222,0)" xlink:href="#C"/></g><path d="M548-192C547 22 309 4 90 0v-656c190 2 420-31 420 160 0 75-46 128-114 143v4c89 14 152 59 152 157zM428-489c4-116-137-100-255-101v214h97c99 0 155-27 158-113zm38 293c0-131-156-119-293-118v248c143 4 293 8 293-130" id="D"/><g id="c"><use transform="matrix(0.01577777777777778,0,0,0.01577777777777778,0,0)" xlink:href="#D"/><use transform="matrix(0.01577777777777778,0,0,0.01577777777777778,9.277333333333335,0)" xlink:href="#r"/><use transform="matrix(0.01577777777777778,0,0,0.01577777777777778,17.860444444444447,0)" xlink:href="#v"/></g><path d="M24-486h84c34 138 73 272 101 416h4c33-142 72-278 108-416h80c37 138 76 275 110 416h4c30-142 67-278 101-416h78L564 0H464c-35-133-73-263-103-401h-4C327-263 289-134 255 0h-96" id="E"/><path d="M271 12C125 12 46-91 46-242c0-152 79-256 225-256s225 104 225 256c0 151-79 254-225 254zm0-442c-100 0-140 84-140 188S172-56 271-56s140-82 140-186-40-188-140-188" id="F"/><path d="M82-712h81v482h3l207-256h91L301-291 486 0h-90L254-234l-91 106V0H82v-712" id="G"/><g id="d"><use transform="matrix(0.01577777777777778,0,0,0.01577777777777778,0,0)" xlink:href="#E"/><use transform="matrix(0.01577777777777778,0,0,0.01577777777777778,11.265333333333334,0)" xlink:href="#F"/><use transform="matrix(0.01577777777777778,0,0,0.01577777777777778,19.81688888888889,0)" xlink:href="#y"/><use transform="matrix(0.01577777777777778,0,0,0.01577777777777778,25.29177777777778,0)" xlink:href="#G"/><use transform="matrix(0.01577777777777778,0,0,0.01577777777777778,32.81777777777778,0)" xlink:href="#x"/><use transform="matrix(0.01577777777777778,0,0,0.01577777777777778,40.643555555555565,0)" xlink:href="#y"/></g><path d="M109-591c55-10 96-24 135-47h63v570h132V0H79v-68h146v-470H109v-53" id="H"/><use transform="matrix(0.01577777777777778,0,0,0.01577777777777778,0,0)" xlink:href="#H" id="e"/><path d="M484-238C550-39 325 64 144-14 105-31 71-55 42-85l50-58c40 43 104 74 181 82 133 14 185-145 71-202-108-54-270-71-270-231 0-151 176-210 315-152 34 14 62 35 85 59l-45 54c-37-35-82-56-149-62-101-9-166 104-87 165 91 70 252 74 291 192" id="I"/><path d="M274 12C124 12 46-89 46-242c0-154 84-249 234-256 64-3 108 29 142 58l-41 53c-27-22-53-43-98-43-104 0-152 81-152 188S178-60 281-56c50 2 87-25 114-49l37 54c-39 34-91 63-158 63" id="J"/><g id="f"><use transform="matrix(0.01577777777777778,0,0,0.01577777777777778,0,0)" xlink:href="#I"/><use transform="matrix(0.01577777777777778,0,0,0.01577777777777778,8.425333333333334,0)" xlink:href="#r"/><use transform="matrix(0.01577777777777778,0,0,0.01577777777777778,17.008444444444446,0)" xlink:href="#s"/><use transform="matrix(0.01577777777777778,0,0,0.01577777777777778,25.765111111111114,0)" xlink:href="#v"/><use transform="matrix(0.01577777777777778,0,0,0.01577777777777778,32.376000000000005,0)" xlink:href="#J"/><use transform="matrix(0.01577777777777778,0,0,0.01577777777777778,39.570666666666675,0)" xlink:href="#y"/><use transform="matrix(0.01577777777777778,0,0,0.01577777777777778,45.045555555555566,0)" xlink:href="#u"/><use transform="matrix(0.01577777777777778,0,0,0.01577777777777778,48.9268888888889,0)" xlink:href="#s"/><use transform="matrix(0.01577777777777778,0,0,0.01577777777777778,57.683555555555564,0)" xlink:href="#x"/><use transform="matrix(0.01577777777777778,0,0,0.01577777777777778,65.50933333333334,0)" xlink:href="#y"/></g><use transform="matrix(0.018,0,0,0.018,0,0)" xlink:href="#H" id="g"/><g id="h"><use transform="matrix(0.01577777777777778,0,0,0.01577777777777778,0,0)" xlink:href="#I"/><use transform="matrix(0.01577777777777778,0,0,0.01577777777777778,8.425333333333334,0)" xlink:href="#r"/><use transform="matrix(0.01577777777777778,0,0,0.01577777777777778,17.008444444444446,0)" xlink:href="#s"/><use transform="matrix(0.01577777777777778,0,0,0.01577777777777778,25.765111111111114,0)" xlink:href="#v"/><use transform="matrix(0.01577777777777778,0,0,0.01577777777777778,32.376000000000005,0)" xlink:href="#J"/><use transform="matrix(0.01577777777777778,0,0,0.01577777777777778,39.570666666666675,0)" xlink:href="#y"/><use transform="matrix(0.01577777777777778,0,0,0.01577777777777778,45.045555555555566,0)" xlink:href="#u"/><use transform="matrix(0.01577777777777778,0,0,0.01577777777777778,48.9268888888889,0)" xlink:href="#s"/><use transform="matrix(0.01577777777777778,0,0,0.01577777777777778,57.683555555555564,0)" xlink:href="#x"/><use transform="matrix(0.01577777777777778,0,0,0.01577777777777778,65.50933333333334,0)" xlink:href="#y"/></g><path d="M160-65c91-9 193-5 292-6V0H40v-49c105-109 211-198 280-329 48-90 10-210-101-205-62 3-103 42-136 77l-47-47c50-52 98-93 193-97 149-6 232 140 171 278-54 122-150 211-240 307" id="K"/><use transform="matrix(0.01577777777777778,0,0,0.01577777777777778,0,0)" xlink:href="#K" id="i"/><use transform="matrix(0.01577777777777778,0,0,0.01577777777777778,0,0)" xlink:href="#B" id="j"/><use transform="matrix(0.01577777777777778,0,0,0.01577777777777778,0,0)" xlink:href="#K" id="k"/><path d="M226-586H28v-70h480v70H310V0h-84v-586" id="L"/><path d="M377-297c-1-82-18-130-91-130-37 0-77 25-122 75V0H82v-486h68l7 70h3c38-39 82-81 151-82 77 0 114 36 134 93 44-45 84-93 160-93 109 0 148 74 148 190V0h-82v-297c-1-81-18-130-90-130-37 0-77 25-122 75V0h-82v-297" id="M"/><g id="l"><use transform="matrix(0.011333333333333334,0,0,0.011333333333333334,0,0)" xlink:href="#L"/><use transform="matrix(0.011333333333333334,0,0,0.011333333333333334,6.074666666666667,0)" xlink:href="#u"/><use transform="matrix(0.011333333333333334,0,0,0.011333333333333334,8.862666666666668,0)" xlink:href="#M"/><use transform="matrix(0.011333333333333334,0,0,0.011333333333333334,18.258000000000003,0)" xlink:href="#x"/><use transform="matrix(0.011333333333333334,0,0,0.011333333333333334,23.879333333333335,0)" xlink:href="#F"/><use transform="matrix(0.011333333333333334,0,0,0.011333333333333334,30.022000000000002,0)" xlink:href="#r"/><use transform="matrix(0.011333333333333334,0,0,0.011333333333333334,36.187333333333335,0)" xlink:href="#C"/></g><path d="M377-522c-5 146-153 167-145 324h-72c-16-134 82-180 126-269 32-68-7-151-86-147-52 3-89 27-115 58l-47-43c40-43 89-83 168-83 101-1 175 60 171 160zM198 12c-33 0-59-28-59-62 0-36 25-64 59-64s60 28 60 64c0 34-27 62-60 62" id="N"/><use transform="matrix(0.011333333333333334,0,0,0.011333333333333334,0,0)" xlink:href="#N" id="m"/><path d="M196-254L-1-656h89c50 109 100 217 148 328h4c52-108 100-219 150-328h87L280-254V0h-84v-254" id="O"/><g id="n"><use transform="matrix(0.011333333333333334,0,0,0.011333333333333334,0,0)" xlink:href="#O"/><use transform="matrix(0.011333333333333334,0,0,0.011333333333333334,4.93,0)" xlink:href="#x"/><use transform="matrix(0.011333333333333334,0,0,0.011333333333333334,10.551333333333334,0)" xlink:href="#v"/></g><g id="o"><use transform="matrix(0.01577777777777778,0,0,0.01577777777777778,0,0)" xlink:href="#I"/><use transform="matrix(0.01577777777777778,0,0,0.01577777777777778,8.425333333333334,0)" xlink:href="#r"/><use transform="matrix(0.01577777777777778,0,0,0.01577777777777778,17.008444444444446,0)" xlink:href="#s"/><use transform="matrix(0.01577777777777778,0,0,0.01577777777777778,25.765111111111114,0)" xlink:href="#v"/><use transform="matrix(0.01577777777777778,0,0,0.01577777777777778,32.376000000000005,0)" xlink:href="#J"/><use transform="matrix(0.01577777777777778,0,0,0.01577777777777778,39.570666666666675,0)" xlink:href="#y"/><use transform="matrix(0.01577777777777778,0,0,0.01577777777777778,45.045555555555566,0)" xlink:href="#u"/><use transform="matrix(0.01577777777777778,0,0,0.01577777777777778,48.9268888888889,0)" xlink:href="#s"/><use transform="matrix(0.01577777777777778,0,0,0.01577777777777778,57.683555555555564,0)" xlink:href="#x"/><use transform="matrix(0.01577777777777778,0,0,0.01577777777777778,65.50933333333334,0)" xlink:href="#y"/></g><path d="M446-170C454 19 187 57 62-44 48-55 37-66 26-78l42-54c39 38 85 76 163 76 74 0 134-44 132-117-3-105-92-126-204-127v-63c101-1 179-24 181-119 2-64-45-102-110-101-62 1-101 32-136 65l-44-52c46-42 99-80 183-80 112 0 191 51 191 162 0 84-53 127-116 152v4c77 21 134 67 138 162" id="P"/><use transform="matrix(0.01577777777777778,0,0,0.01577777777777778,0,0)" xlink:href="#P" id="p"/></defs></g></svg>